<?xml version="1.0" encoding="utf-8"?>
<svg xmlns="http://www.w3.org/2000/svg" viewBox="-1.4969 -2.4316 134.6739 135.1082" width="134.674px" height="135.108px">
  <polygon style="stroke: rgb(254, 5, 5); fill: rgb(255, 0, 0); transform-origin: 65.84px 65.1225px;" points="19.041 32.806 41.665 55.395 15.92 50.059 47.224 68.394 22.503 76.132 57.466 85.399 42.31 101.479 82.536 92.913 63.096 109.716 86.541 97.444 87.523 110.643 91.454 103.417 93.174 108.473 96.362 100.011 98.725 107.765 100.569 98.324 104.761 103.152 103.561 92.624 109.489 99.883 107.719 88.603 115.76 92.275 104.44 82.794 113.936 79.514 102.499 78.118 107.793 70.634 99.826 70.127 103.968 58.335 95.23 63.056 101.005 43.737 83.92 56.442 90.281 40.806 69.173 51.734 60.807 22.537 57.204 52.804 38.359 19.602 40.345 38.611 23.165 20.84 31.183 39.178" transform="matrix(0.681997895241, 0.731353998184, -0.731353998184, 0.681997895241, -0.000008946655, 0.000004380303)"/>
  <polygon style="fill: rgb(255, 157, 0); transform-origin: 65.48px 71.4885px;" points="23.992 42.839 44.048 62.865 21.225 58.134 48.976 74.389 27.061 81.249 58.056 89.464 44.62 103.719 80.281 96.125 63.047 111.022 83.832 100.142 84.702 111.843 88.187 105.437 89.712 109.92 92.538 102.418 94.633 109.292 96.268 100.922 99.984 105.203 98.921 95.869 104.176 102.304 102.607 92.304 109.735 95.56 99.7 87.155 108.118 84.247 97.979 83.009 102.672 76.375 95.609 75.925 99.281 65.471 91.535 69.657 96.655 52.53 81.508 63.793 87.148 49.931 68.435 59.619 61.018 33.735 57.824 60.568 41.117 31.134 42.878 47.985 27.648 32.231 34.756 48.488" transform="matrix(0.681997895241, 0.731353998184, -0.731353998184, 0.681997895241, -0.000012788374, 0.000004497598)"/>
  <polygon style="fill: rgb(255, 167, 0); transform-origin: 61.687px 77.2595px;" points="28.806 54.553 44.701 70.425 26.613 66.675 48.607 79.558 31.238 84.995 55.803 91.506 45.154 102.804 73.418 96.785 59.759 108.592 76.232 99.969 76.921 109.242 79.683 104.165 80.892 107.718 83.132 101.773 84.792 107.221 86.088 100.587 89.033 103.98 88.191 96.582 92.356 101.682 91.112 93.757 96.761 96.337 88.808 89.676 95.48 87.371 87.444 86.39 91.164 81.132 85.566 80.776 88.476 72.49 82.337 75.808 86.395 62.234 74.39 71.16 78.86 60.174 64.029 67.852 58.151 47.338 55.619 68.604 42.378 45.277 43.774 58.632 31.703 46.146 37.337 59.03" transform="matrix(0.681997895241, 0.731353998184, -0.731353998184, 0.681997895241, -0.000005559491, 4.99247e-7)"/>
  <polygon style="fill: rgb(255, 220, 0); transform-origin: 58.659px 79.0115px;" points="32.558 60.987 45.176 73.586 30.817 70.61 48.276 80.836 34.489 85.152 53.988 90.32 45.535 99.289 67.971 94.511 57.129 103.883 70.205 97.038 70.752 104.399 72.944 100.369 73.904 103.189 75.682 98.47 77 102.795 78.028 97.529 80.366 100.222 79.698 94.35 83.004 98.398 82.017 92.107 86.501 94.155 80.188 88.868 85.484 87.038 79.105 86.259 82.058 82.085 77.614 81.803 79.924 75.225 75.051 77.859 78.272 67.084 68.743 74.17 72.291 65.449 60.518 71.544 55.852 55.26 53.842 72.141 43.332 53.624 44.44 64.225 34.858 54.314 39.33 64.541" transform="matrix(0.681997895241, 0.731353998184, -0.731353998184, 0.681997895241, -0.000010582978, -0.000006854994)"/>
</svg>
